<svg xmlns="http://www.w3.org/2000/svg" viewBox="0 0 32 32" width="32" height="32">
  <defs>
    <linearGradient id="g" x1="0%" y1="0%" x2="100%" y2="100%">
      <stop offset="0%" stop-color="#f472b6"/>
      <stop offset="50%" stop-color="#e879f9"/>
      <stop offset="100%" stop-color="#a78bfa"/>
    </linearGradient>
  </defs>
  <rect width="32" height="32" rx="8" fill="#0a0a0a"/>
  <path d="M16 4C9.4 4 4 9.4 4 16s5.4 12 12 12c3.3 0 6.3-1.3 8.5-3.5l-3-3C20 23 18.1 24 16 24c-4.4 0-8-3.6-8-8s3.6-8 8-8c2.2 0 4.2.9 5.7 2.3L19 13h9V4l-3.2 3.2C22.6 5.2 19.5 4 16 4z" fill="url(#g)"/>
</svg>
